<?xml version="1.0" encoding="iso-8859-1"?>
<!-- Generator: Adobe Illustrator 19.0.0, SVG Export Plug-In . SVG Version: 6.00 Build 0)  -->
<svg version="1.1" id="Capa_1" xmlns="http://www.w3.org/2000/svg" xmlns:xlink="http://www.w3.org/1999/xlink" x="0px" y="0px"
	 viewBox="0 0 412.5 412.5" style="enable-background:new 0 0 412.5 412.5;" xml:space="preserve">
<path id="XMLID_1006_" d="M256.25,272.5c-10.731,0-20.902,2.434-30,6.768v-7.961l85.135-74.18L206.25,0L101.115,197.127
	l85.135,74.18v7.961c-9.098-4.334-19.269-6.768-30-6.768c-38.598,0-70,31.402-70,70s31.402,70,70,70
	c19.572,0,37.284-8.084,50-21.077c12.716,12.993,30.428,21.077,50,21.077c38.598,0,70-31.402,70-70S294.848,272.5,256.25,272.5z
	 M226.25,218.252V122.5l34.865,65.373L226.25,218.252z M151.385,187.873L186.25,122.5v95.752L151.385,187.873z M156.25,372.5
	c-16.542,0-30-13.458-30-30s13.458-30,30-30s30,13.458,30,30S172.792,372.5,156.25,372.5z M256.25,372.5c-16.542,0-30-13.458-30-30
	s13.458-30,30-30s30,13.458,30,30S272.792,372.5,256.25,372.5z"/>
<g>
</g><g></g><g></g><g></g><g></g><g></g><g></g><g></g><g></g><g></g><g></g><g></g><g></g><g>
</g><g></g>
</svg>
